<svg width="32" height="31" viewBox="0 0 32 31" fill="none" xmlns="http://www.w3.org/2000/svg">
<path fill-rule="evenodd" clip-rule="evenodd" d="M16 3.875C9.37258 3.875 4 9.07969 4 15.5C4 21.9203 9.37258 27.125 16 27.125C22.6274 27.125 28 21.9203 28 15.5C27.9928 9.08257 22.6244 3.88194 16 3.875ZM16 22.2812C15.1716 22.2812 14.5 21.6307 14.5 20.8281C14.5 20.0256 15.1716 19.375 16 19.375C16.8284 19.375 17.5 20.0256 17.5 20.8281C17.5 21.6307 16.8284 22.2812 16 22.2812ZM17 17.2796C16.9998 16.8942 17.2354 16.5454 17.6 16.3912C19.431 15.6171 20.3916 13.6539 19.8504 11.7909C19.3092 9.92792 17.432 8.73746 15.453 9.00213C13.474 9.26679 12 10.9054 12 12.8408C12 13.3758 12.4477 13.8095 13 13.8095C13.5523 13.8095 14 13.3758 14 12.8408C13.9995 11.873 14.7362 11.0532 15.7258 10.9206C16.7154 10.7879 17.6543 11.383 17.9251 12.3146C18.1959 13.2461 17.7156 14.2284 16.8 14.6155C15.7066 15.0778 14.9998 16.1238 15 17.2796C15 17.8146 15.4477 18.2483 16 18.2483C16.5523 18.2483 17 17.8146 17 17.2796Z" fill="#1A203D"/>
</svg>
